<svg xmlns="http://www.w3.org/2000/svg" viewBox="0 0 100 100" width="100" height="100" role="img" aria-label="Domovoi">
  <path d="M50 4C67 4 79 14 81 31C83 45 88 60 84 73C79 87 66 96 50 96C34 96 21 87 16 73C12 60 17 45 19 31C21 14 33 4 50 4ZM50 16C60 16 67 22 67 32C67 43 60 51 50 51C40 51 33 43 33 32C33 22 40 16 50 16Z" fill="currentColor" fill-rule="evenodd"></path>
  <path d="M38.7 31a3.3 3.3 0 1 0 6.6 0a3.3 3.3 0 1 0 -6.6 0ZM54.7 31a3.3 3.3 0 1 0 6.6 0a3.3 3.3 0 1 0 -6.6 0ZM34 43C40 40 45 43 50 43C55 43 60 40 66 43C59 50 54 47 50 47C46 47 41 50 34 43Z" fill="currentColor"></path>
</svg>
